<mxfile host="app.diagrams.net" modified="2023-05-17T06:51:29.562Z" agent="Mozilla/5.0 (Windows NT 10.0; Win64; x64) AppleWebKit/537.36 (KHTML, like Gecko) Chrome/113.0.0.0 Safari/537.36" version="21.3.2" etag="h3JdJFYEb53YiLlm4kI0" type="device">
  <diagram id="zRPmPjsiqtP1nRYKulMS" name="Page-1">
    <mxGraphModel dx="794" dy="1599" grid="1" gridSize="10" guides="1" tooltips="1" connect="1" arrows="1" fold="1" page="1" pageScale="1" pageWidth="827" pageHeight="1169" math="0" shadow="0">
      <root>
        <mxCell id="0" />
        <mxCell id="1" parent="0" />
        <mxCell id="2PlkHpF2AmjyAUEpBTSh-3" value="" style="edgeStyle=orthogonalEdgeStyle;rounded=0;orthogonalLoop=1;jettySize=auto;html=1;" edge="1" parent="1" source="2PlkHpF2AmjyAUEpBTSh-1" target="2PlkHpF2AmjyAUEpBTSh-2">
          <mxGeometry relative="1" as="geometry" />
        </mxCell>
        <mxCell id="2PlkHpF2AmjyAUEpBTSh-1" value="" style="strokeWidth=2;html=1;shape=mxgraph.flowchart.start_2;whiteSpace=wrap;" vertex="1" parent="1">
          <mxGeometry x="330" width="80" height="80" as="geometry" />
        </mxCell>
        <mxCell id="2PlkHpF2AmjyAUEpBTSh-5" value="" style="edgeStyle=orthogonalEdgeStyle;rounded=0;orthogonalLoop=1;jettySize=auto;html=1;" edge="1" parent="1" source="2PlkHpF2AmjyAUEpBTSh-2" target="2PlkHpF2AmjyAUEpBTSh-4">
          <mxGeometry relative="1" as="geometry" />
        </mxCell>
        <mxCell id="2PlkHpF2AmjyAUEpBTSh-2" value="Users are retrieved from database" style="whiteSpace=wrap;html=1;strokeWidth=2;" vertex="1" parent="1">
          <mxGeometry x="310" y="110" width="120" height="60" as="geometry" />
        </mxCell>
        <mxCell id="2PlkHpF2AmjyAUEpBTSh-7" value="" style="edgeStyle=orthogonalEdgeStyle;rounded=0;orthogonalLoop=1;jettySize=auto;html=1;" edge="1" parent="1" source="2PlkHpF2AmjyAUEpBTSh-4" target="2PlkHpF2AmjyAUEpBTSh-6">
          <mxGeometry relative="1" as="geometry" />
        </mxCell>
        <mxCell id="2PlkHpF2AmjyAUEpBTSh-4" value="Data model containing users with account status REQUESTED is generated" style="whiteSpace=wrap;html=1;strokeWidth=2;" vertex="1" parent="1">
          <mxGeometry x="280" y="230" width="180" height="60" as="geometry" />
        </mxCell>
        <mxCell id="2PlkHpF2AmjyAUEpBTSh-8" style="edgeStyle=orthogonalEdgeStyle;rounded=0;orthogonalLoop=1;jettySize=auto;html=1;" edge="1" parent="1" source="2PlkHpF2AmjyAUEpBTSh-6" target="2PlkHpF2AmjyAUEpBTSh-9">
          <mxGeometry relative="1" as="geometry">
            <mxPoint x="370" y="510" as="targetPoint" />
          </mxGeometry>
        </mxCell>
        <mxCell id="2PlkHpF2AmjyAUEpBTSh-6" value="Display table is updated" style="whiteSpace=wrap;html=1;strokeWidth=2;" vertex="1" parent="1">
          <mxGeometry x="310" y="370" width="120" height="60" as="geometry" />
        </mxCell>
        <mxCell id="2PlkHpF2AmjyAUEpBTSh-9" value="" style="ellipse;html=1;shape=endState;fillColor=#000000;strokeColor=#ff0000;" vertex="1" parent="1">
          <mxGeometry x="340" y="495" width="60" height="55" as="geometry" />
        </mxCell>
      </root>
    </mxGraphModel>
  </diagram>
</mxfile>
